<?xml version="1.0" encoding="UTF-8" standalone="no"?>
<!-- Generator: Adobe Illustrator 17.0.0, SVG Export Plug-In . SVG Version: 6.00 Build 0)  -->

<svg
   xmlns:dc="http://purl.org/dc/elements/1.1/"
   xmlns:cc="http://creativecommons.org/ns#"
   xmlns:rdf="http://www.w3.org/1999/02/22-rdf-syntax-ns#"
   xmlns:svg="http://www.w3.org/2000/svg"
   xmlns="http://www.w3.org/2000/svg"
   xmlns:sodipodi="http://sodipodi.sourceforge.net/DTD/sodipodi-0.dtd"
   xmlns:inkscape="http://www.inkscape.org/namespaces/inkscape"
   version="1.1"
   id="Calque_1"
   x="0px"
   y="0px"
   width="1200"
   height="400"
   viewBox="0 0 1125 375"
   enable-background="new 0 0 595.28 841.89"
   xml:space="preserve"
   inkscape:version="0.92.2 5c3e80d, 2017-08-06"
   sodipodi:docname="traefik.logo.horizontal.bright.svg"
   inkscape:export-filename="/home/emile/dev/traefik.website/static/traefik.logo.png"
   inkscape:export-xdpi="90"
   inkscape:export-ydpi="90"><metadata
     id="metadata3280"><rdf:RDF><cc:Work
         rdf:about=""><dc:format>image/svg+xml</dc:format><dc:type
           rdf:resource="http://purl.org/dc/dcmitype/StillImage" /><dc:title></dc:title></cc:Work></rdf:RDF></metadata><defs
     id="defs3278" /><sodipodi:namedview
     pagecolor="#ffffff"
     bordercolor="#666666"
     borderopacity="1"
     objecttolerance="10"
     gridtolerance="10"
     guidetolerance="10"
     inkscape:pageopacity="0"
     inkscape:pageshadow="2"
     inkscape:window-width="1920"
     inkscape:window-height="1023"
     id="namedview3276"
     showgrid="false"
     fit-margin-top="20"
     fit-margin-left="20"
     fit-margin-right="20"
     fit-margin-bottom="20"
     inkscape:zoom="0.56064329"
     inkscape:cx="140.96099"
     inkscape:cy="547.7679"
     inkscape:window-x="0"
     inkscape:window-y="28"
     inkscape:window-maximized="1"
     inkscape:current-layer="Calque_1" /><path
     d="m 65.830168,151.70057 c 0,0 24.66784,-21.47409 97.677322,-21.47409 66.97804,0 85.80047,15.19398 104.91761,21.47409 l -99.73639,48.73542 z"
     id="path3156"
     inkscape:connector-curvature="0"
     style="fill:#c9781f" /><g
     id="g3158"
     transform="matrix(0.63926204,0,0,0.63926204,-20.621082,-88.245797)"><path
       d="m 118.946,476.458 c 0.707,14.572 15.264,7.83 21.858,3.274 6.259,-4.325 8.089,-0.73 8.638,-9.266 0.36,-5.61 1.007,-11.22 0.688,-16.853 -9.464,-0.858 -19.759,1.396 -27.518,7.033 -3.996,2.905 -11.49,12.174 -3.666,15.812"
       id="path3160"
       inkscape:connector-curvature="0"
       style="fill:#f6d2a2" /><path
       d="m 118.946,476.458 c 2.119,-0.788 4.364,-1.348 5.802,-3.264"
       id="path3162"
       inkscape:connector-curvature="0"
       style="fill:#c6b198" /><path
       d="M 152.588,302.861 C 96.804,287.174 138.284,216.207 183.08,245.397 Z"
       id="path3164"
       inkscape:connector-curvature="0"
       style="fill:#37abc8" /><path
       d="m 400.436,240.071 c 44.155,-31.014 84.056,38.959 32.74,56.565 z"
       id="path3166"
       inkscape:connector-curvature="0"
       style="fill:#37abc8" /><path
       d="m 409.934,655.8 c 11.216,6.94 31.716,27.923 14.891,38.098 -16.166,14.802 -25.214,-16.247 -39.403,-20.549 6.111,-8.298 13.856,-15.865 24.512,-17.549 z"
       id="path3168"
       inkscape:connector-curvature="0"
       style="fill:#f6d2a2" /><path
       d="m 424.825,693.897 c -2.494,-4.96 -3.332,-10.748 -7.496,-14.746"
       id="path3170"
       inkscape:connector-curvature="0"
       style="fill:none" /><path
       d="m 209.561,679.514 c -13.164,2.037 -20.574,13.914 -31.548,19.945 -10.341,6.166 -14.297,-1.974 -15.229,-3.627 -1.621,-0.739 -1.485,0.688 -3.987,-1.831 -9.587,-15.13 9.989,-26.189 20.182,-33.705 14.198,-2.871 23.096,9.438 30.582,19.218 z"
       id="path3172"
       inkscape:connector-curvature="0"
       style="fill:#f6d2a2" /><path
       d="m 162.785,695.831 c 0.501,-5.766 5.074,-9.628 7.251,-14.504"
       id="path3174"
       inkscape:connector-curvature="0"
       style="fill:none" /><path
       d="m 154.916,283.26 c -7.36,-3.893 -12.759,-9.18 -8.257,-17.693 4.168,-7.88 11.911,-7.025 19.271,-3.132 z"
       id="path3176"
       inkscape:connector-curvature="0"
       style="fill:#077e91" /><path
       d="m 421.549,275.859 c 7.36,-3.893 12.759,-9.18 8.257,-17.693 -4.168,-7.881 -11.91,-7.025 -19.271,-3.132 z"
       id="path3178"
       inkscape:connector-curvature="0"
       style="fill:#077e91" /><path
       d="m 472.21,474.607 c -0.707,14.572 -15.264,7.83 -21.858,3.274 -6.259,-4.325 -8.089,-0.73 -8.638,-9.265 -0.36,-5.61 -1.007,-11.22 -0.688,-16.853 9.464,-0.858 19.759,1.396 27.518,7.033 3.996,2.904 11.49,12.174 3.666,15.811"
       id="path3180"
       inkscape:connector-curvature="0"
       style="fill:#f6d2a2" /><path
       d="m 472.21,474.607 c -2.119,-0.788 -4.364,-1.348 -5.802,-3.264"
       id="path3182"
       inkscape:connector-curvature="0"
       style="fill:#c6b198" /><g
       id="g3184"><path
         d="m 289.988,210.595 c 55.847,0 108.2,7.987 135.492,61.642 24.496,60.141 15.785,124.993 19.521,188.553 3.208,54.577 10.322,117.629 -14.997,168.205 -26.635,53.21 -93.191,66.595 -148.026,64.634 -43.071,-1.541 -95.101,-15.593 -119.409,-54.944 -28.519,-46.165 -15.017,-114.81 -12.946,-166.179 2.454,-60.849 -16.482,-121.882 3.508,-181.425 20.737,-61.765 76.665,-75.724 136.857,-80.486"
         id="path3186"
         inkscape:connector-curvature="0"
         style="fill:#37abc8" /></g><path
       d="m 299.847,285.567 c 10.027,58.288 105.304,42.877 91.619,-15.91 -12.271,-52.716 -94.951,-38.124 -91.619,15.91"
       id="path3188"
       inkscape:connector-curvature="0"
       style="fill:#ffffff" /><path
       d="m 185.992,294.994 c 12.996,50.745 94.24,37.753 91.178,-13.149 -3.669,-60.964 -103.603,-49.2 -91.178,13.149"
       id="path3190"
       inkscape:connector-curvature="0"
       style="fill:#ffffff" /><path
       d="m 318.343,353.511 c 0.044,7.79 1.843,15.403 0.289,24.148 -1.935,3.656 -5.729,4.043 -9.001,5.52 -4.524,-0.71 -8.328,-3.68 -10.143,-7.912 -1.161,-9.202 0.433,-18.111 0.726,-27.316 z"
       id="path3192"
       inkscape:connector-curvature="0"
       style="fill:#ffffff" /><g
       id="g3194"><ellipse
         cx="208.39999"
         cy="286.71799"
         rx="13.719"
         ry="14.86"
         id="ellipse3196" /><ellipse
         cx="214.64"
         cy="290.07101"
         rx="3.234"
         ry="3.777"
         id="ellipse3198"
         style="fill:#ffffff" /></g><g
       id="g3200"><ellipse
         cx="323.34799"
         cy="283.017"
         rx="13.491"
         ry="14.86"
         id="ellipse3202" /><ellipse
         cx="329.48499"
         cy="286.371"
         rx="3.181"
         ry="3.777"
         id="ellipse3204"
         style="fill:#ffffff" /></g><path
       d="m 279.137,354.685 c -5.986,14.507 3.338,43.515 19.579,22.119 -1.161,-9.202 0.433,-18.111 0.726,-27.316 z"
       id="path3206"
       inkscape:connector-curvature="0"
       style="fill:#ffffff" /><g
       id="g3208"><path
         d="m 278.185,326.748 c -11.156,0.951 -20.276,14.216 -14.475,24.71 7.682,13.9 24.828,-1.23 35.507,0.188 12.291,0.252 22.361,12.996 32.233,2.304 10.979,-11.892 -4.727,-23.474 -17.002,-28.652 z"
         id="path3210"
         inkscape:connector-curvature="0"
         style="fill:#f6d2a2" /></g></g><g
     id="g3212"
     transform="matrix(0.63926204,0,0,0.63926204,-20.621082,-88.245797)"><path
       d="m 135.236,375.349 c 0,0 3.532,38.261 3.29,54.754 -0.242,16.492 15.56,6.079 16.38,32.016 0.82,25.937 -9.572,21.018 -15.047,33.713 -5.475,12.694 -9.196,72.145 -9.196,72.145 0,0 5.618,11.108 23.166,21.11 17.548,10.002 45.765,15.62 70.198,14.513 24.433,-1.107 41.885,-6.341 46.249,-9.236 4.363,-2.894 11.605,-12.05 14.329,-19.131 2.724,-7.081 8.415,-65.402 8.018,-98.775 -0.397,-33.373 -5.911,-64.166 -5.911,-64.166 z"
       id="path3214"
       inkscape:connector-curvature="0"
       style="fill:#ef9325" /><path
       d="m 290.007,537.841 c -71.952,8.032 -155.439,-14.172 -155.439,-14.172 0,0 1.226,-22.521 6.626,-30.447 74.833,23.185 150.329,15.834 150.329,15.834 1.12,10.514 0.331,18.872 -1.516,28.785 z"
       id="path3216"
       inkscape:connector-curvature="0"
       style="fill:#e5e5e5" /><path
       d="m 280.95,582.228 c -71.952,8.032 -150.287,-15.064 -150.287,-15.064 0,0 -0.251,-21.631 2.607,-31.13 74.833,23.185 154.763,17.407 154.763,17.407 -0.673,11.413 -2.278,22.646 -7.083,28.787 z"
       id="path3218"
       inkscape:connector-curvature="0"
       style="fill:#e5e5e5" /></g><g
     id="g3220"
     transform="matrix(0.63926204,0,0,0.63926204,-20.621082,-88.245797)"><path
       d="m 452.156,375.349 c 0,0 -0.488,38.261 -0.243,54.754 0.245,16.492 -9.578,6.079 -10.409,32.016 -0.831,25.937 9.692,21.018 15.236,33.713 5.544,12.694 9.312,72.145 9.312,72.145 0,0 -5.689,11.108 -23.457,21.11 -17.768,10.002 -46.34,15.62 -71.08,14.513 -24.74,-1.107 -42.411,-6.341 -46.83,-9.236 -4.419,-2.895 -11.751,-12.05 -14.509,-19.131 -2.758,-7.081 -8.521,-65.402 -8.119,-98.775 0.402,-33.373 5.985,-64.166 5.985,-64.166 z"
       id="path3222"
       inkscape:connector-curvature="0"
       style="fill:#ef9325" /><path
       d="m 304.706,537.841 c 72.856,8.032 157.392,-14.172 157.392,-14.172 0,0 -1.242,-22.521 -6.709,-30.447 -75.774,23.185 -152.218,15.834 -152.218,15.834 -1.134,10.514 -0.335,18.872 1.535,28.785 z"
       id="path3224"
       inkscape:connector-curvature="0"
       style="fill:#e5e5e5" /><path
       d="m 313.876,582.228 c 72.856,8.032 152.175,-15.064 152.175,-15.064 0,0 0.254,-21.631 -2.64,-31.13 -75.774,23.185 -156.707,17.407 -156.707,17.407 0.682,11.413 2.307,22.646 7.172,28.787 z"
       id="path3226"
       inkscape:connector-curvature="0"
       style="fill:#e5e5e5" /></g><g
     id="g3228"
     transform="matrix(0.63926204,0,0,0.63926204,-20.621082,-88.245797)"><path
       d="m 481.221,445.525 c -2.264,4.272 -6.745,6.334 -10.009,4.604 l -2.615,-1.385 c -3.264,-1.729 -4.076,-6.595 -1.812,-10.867 l 50.985,-96.234 c 2.263,-4.272 6.745,-6.334 10.009,-4.604 l 2.615,1.385 c 3.264,1.729 4.076,6.595 1.812,10.867 z"
       id="path3230"
       inkscape:connector-curvature="0"
       style="fill:#d2e261" /><path
       d="m 457.143,490.972 c -1.319,2.489 -5.034,3.105 -8.298,1.375 l -2.615,-1.385 c -3.264,-1.729 -4.842,-5.149 -3.523,-7.638 l 23.92,-45.149 c 1.319,-2.489 5.034,-3.105 8.298,-1.375 l 2.615,1.385 c 3.264,1.729 4.842,5.149 3.523,7.638 z"
       id="path3232"
       inkscape:connector-curvature="0" /><path
       d="m 478.411,436.54 -2.615,-1.385 c -3.264,-1.729 -6.604,-1.823 -7.459,-0.21 l -1.529,2.886 c 0.855,-1.614 4.194,-1.52 7.459,0.21 l 2.615,1.385 c 3.264,1.729 5.218,4.44 4.363,6.053 l 1.529,-2.886 c 0.855,-1.613 -1.099,-4.323 -4.363,-6.053 z"
       id="path3234"
       inkscape:connector-curvature="0"
       style="fill:#9b9b9b" /></g><ellipse
     transform="rotate(20.413879)"
     cx="326.77023"
     cy="99.798103"
     rx="7.175096"
     ry="5.5507269"
     id="ellipse3236"
     style="fill:#f6d2a2;stroke-width:0.63926375" /><g
     id="g3238"
     transform="matrix(0.63926204,0,0,0.63926204,-20.621082,-88.245797)"><path
       d="m 111.779,447.078 c 2.065,4.372 6.447,6.637 9.787,5.059 l 2.675,-1.264 c 3.34,-1.578 4.374,-6.401 2.309,-10.773 L 80.032,341.629 c -2.065,-4.372 -6.447,-6.637 -9.787,-5.059 l -2.675,1.264 c -3.34,1.578 -4.374,6.401 -2.309,10.773 z"
       id="path3240"
       inkscape:connector-curvature="0"
       style="fill:#d2e261" /><path
       d="m 133.748,493.582 c 1.203,2.547 4.886,3.332 8.227,1.755 l 2.675,-1.264 c 3.34,-1.578 5.073,-4.922 3.869,-7.469 l -21.825,-46.199 c -1.203,-2.547 -4.886,-3.332 -8.227,-1.755 l -2.675,1.264 c -3.34,1.578 -5.073,4.922 -3.869,7.469 z"
       id="path3242"
       inkscape:connector-curvature="0" /><path
       d="m 114.998,438.232 2.675,-1.264 c 3.34,-1.578 6.68,-1.519 7.46,0.132 l 1.395,2.954 c -0.78,-1.651 -4.12,-1.71 -7.46,-0.133 l -2.675,1.264 c -3.34,1.578 -5.416,4.196 -4.636,5.847 l -1.395,-2.954 c -0.779,-1.65 1.296,-4.268 4.636,-5.846 z"
       id="path3244"
       inkscape:connector-curvature="0"
       style="fill:#9b9b9b" /></g><ellipse
     transform="rotate(159.58612)"
     cx="9.5582676"
     cy="-218.713"
     rx="7.175096"
     ry="5.5507269"
     id="ellipse3246"
     style="fill:#f6d2a2;stroke-width:0.63926375" /><g
     id="g3248"
     transform="matrix(0.63926204,0,0,0.63926204,-20.621082,-88.245797)"><g
       id="g3250"><path
         d="m 159.132,324.732 c -2.218,4.033 -7.45,5.414 -11.687,3.084 l -4.873,-2.679 c -4.237,-2.33 -5.873,-7.488 -3.656,-11.521 l 50.714,-92.23 c 2.218,-4.033 7.45,-5.414 11.687,-3.084 l 4.873,2.679 c 4.237,2.33 5.33,6.689 3.656,11.521 -17.765,51.258 -50.714,92.23 -50.714,92.23 z"
         id="path3252"
         inkscape:connector-curvature="0"
         style="fill:#960000" /><path
         d="m 172.547,272.051 c 15.422,-28.047 25.555,-52.169 23.141,-54.905 l 0.057,-0.103 c -0.066,-0.036 -0.136,-0.06 -0.202,-0.096 -0.008,-0.005 -0.01,-0.021 -0.019,-0.026 l -0.007,0.014 c -23.699,-12.841 -55.583,-0.124 -71.334,28.522 -15.751,28.646 -9.41,62.381 14.128,75.514 l -0.007,0.014 c 0.009,0.005 0.023,-0.002 0.032,0.002 0.066,0.037 0.123,0.083 0.189,0.119 l 0.057,-0.103 c 3.602,0.573 18.543,-20.905 33.965,-48.952 z"
         id="path3254"
         inkscape:connector-curvature="0"
         style="fill:#595959" /></g><g
       id="g3256"><path
         d="m 426.693,324.925 c 2.1,4.095 7.291,5.627 11.593,3.42 l 4.948,-2.538 c 4.302,-2.206 6.087,-7.315 3.987,-11.41 L 399.19,220.742 c -2.1,-4.095 -7.291,-5.627 -11.593,-3.42 l -4.948,2.538 c -4.302,2.206 -5.521,6.533 -3.987,11.41 16.279,51.749 48.031,93.655 48.031,93.655 z"
         id="path3258"
         inkscape:connector-curvature="0"
         style="fill:#960000" /><path
         d="m 414.804,271.879 c -14.606,-28.48 -24.039,-52.885 -21.547,-55.55 l -0.054,-0.105 c 0.067,-0.034 0.138,-0.056 0.205,-0.09 0.009,-0.005 0.011,-0.021 0.02,-0.025 l 0.007,0.014 c 24.059,-12.152 55.563,1.48 70.481,30.569 14.918,29.089 7.606,62.627 -16.301,75.075 l 0.007,0.014 c -0.009,0.004 -0.023,-0.003 -0.032,10e-4 -0.067,0.035 -0.125,0.08 -0.192,0.114 l -0.054,-0.105 c -3.618,0.468 -17.934,-21.432 -32.54,-49.912 z"
         id="path3260"
         inkscape:connector-curvature="0"
         style="fill:#595959" /></g><path
       d="m 462.36,259.869 c 0,0 -17.746,-44.446 -38.326,-67.945 -20.58,-23.498 -221.937,-31.512 -255.003,0 -33.066,31.512 -45.533,67.945 -45.533,67.945 v -9.844 c 0,0 15.295,-43.268 45.533,-67.945 30.238,-24.677 228.946,-23.378 254.582,0 25.635,23.378 38.747,67.945 38.747,67.945 z"
       id="path3262"
       inkscape:connector-curvature="0"
       style="fill:#353535" /><ellipse
       transform="matrix(-0.8898,0.4563,-0.4563,-0.8898,986.5333,258.1984)"
       cx="462.09201"
       cy="248.211"
       rx="6.9489999"
       ry="16.975"
       id="ellipse3264"
       style="fill:#960000" /><ellipse
       transform="matrix(0.8763,0.4818,-0.4818,0.8763,134.6121,-30.1261)"
       cx="125.962"
       cy="247.02901"
       rx="6.9489999"
       ry="16.975"
       id="ellipse3266"
       style="fill:#960000" /></g><g
     id="g3268"
     transform="matrix(0.63926204,0,0,0.63926204,-20.621082,-88.245797)"><path
       d="M 386.49,250.492 H 349.285 319.791 274.555 249 198.68 c -33.72,0 -33.604,89.606 -1.945,94.771 l 65.466,-4.21 c 7.915,0 23.719,-30.655 26.684,-33.065 2.965,-2.41 12.729,-2.704 16.575,0 3.846,2.704 12.593,29.976 20.507,29.976 l 65.466,7.298 c 30.579,-14.072 22.87,-94.77 -4.943,-94.77 z"
       id="path3270"
       inkscape:connector-curvature="0"
       style="opacity:0.6;fill:#ffffff" /><path
       d="m 248.545,269.019 c -20.685,-0.462 -53.05,-0.274 -70.729,-0.13 -2.964,9.719 -6.269,22.024 -4.63,33.972 16.056,0 50.96,0.078 75.782,0.078 14.946,0 27.512,2.82 39.198,5.875 0.288,-0.368 0.53,-0.639 0.719,-0.792 2.965,-2.41 12.729,-2.704 16.575,0 0.995,0.7 2.323,3.058 3.874,6.149 5.967,1.258 11.943,2.127 18.153,2.205 16.915,0.214 56.557,0.146 82.066,0.074 3.249,-10.857 0.853,-22.495 0.125,-33.432 -24.906,0 -64.487,-0.562 -83.463,-0.562 -26.738,-0.001 -50.083,-12.821 -77.67,-13.437 z"
       id="path3272"
       inkscape:connector-curvature="0"
       style="opacity:0.5;fill:#ffffff" /></g><path
     d="m 156.31451,120.26038 c -0.52803,-12.35565 23.02878,-13.90011 25.81085,-3.55813 2.77504,10.31833 -24.65122,12.71492 -25.81085,3.55813 -0.92565,-7.31124 0,0 0,0 z"
     id="path3274"
     inkscape:connector-curvature="0" /><g
     id="g4825"><g
       id="text3009"
       style="font-style:normal;font-variant:normal;font-weight:normal;font-stretch:normal;font-size:40px;line-height:125%;font-family:'DejaVu Sans';-inkscape-font-specification:'DejaVu Sans';letter-spacing:0px;word-spacing:0px;display:inline;fill:#e5e5e5;fill-opacity:1;stroke:none"
       transform="matrix(2.0884119,0,0,2.088412,153.41209,-44.948927)"><path
         inkscape:connector-curvature="0"
         id="path3014"
         style="font-size:144px;font-family:Nunito;-inkscape-font-specification:Nunito;fill:#e5e5e5;fill-opacity:1"
         d="m 119.09119,162.63228 h 4.14844 c 1.68746,0 3.04684,-0.0469 4.07813,-0.14063 1.07808,-0.0937 2.13277,-0.30468 3.16406,-0.63281 1.07808,-0.32812 1.87495,-0.84375 2.39062,-1.54687 0.51558,-0.75 0.77339,-1.71094 0.77344,-2.88282 -5e-5,-1.31249 -0.44536,-2.46093 -1.33594,-3.44531 -0.89067,-0.98437 -2.10942,-1.47655 -3.65625,-1.47656 h -0.42187 l -4.78125,0.21094 h -0.77344 c -2.95316,0 -5.10941,-1.05468 -6.46875,-3.16407 -1.3594,-2.15623 -2.03909,-5.64842 -2.03906,-10.47656 v -38.32031 h 12.9375 c 3.0937,6e-5 4.64058,-1.335877 4.64062,-4.007814 -4e-5,-1.265559 -0.39848,-2.296808 -1.19531,-3.09375 -0.75004,-0.796806 -1.89848,-1.195243 -3.44531,-1.195313 h -12.9375 V 72.069778 c -3e-5,-1.640533 -0.46878,-2.88272 -1.40625,-3.726562 -0.93753,-0.890531 -2.1094,-1.335843 -3.51563,-1.335938 -1.50002,9.5e-5 -2.88283,0.539157 -4.14843,1.617188 -1.21877,1.078217 -1.87502,2.367278 -1.96875,3.867187 l -1.68751,19.96875 h -8.64844 c -1.546881,7e-5 -2.718754,0.398507 -3.515625,1.195313 -0.796878,0.750067 -1.195315,1.734441 -1.195313,2.953125 -2e-6,1.265689 0.398435,2.2735 1.195313,3.023437 0.843745,0.750062 2.039057,1.125062 3.585937,1.125002 h 8.578128 v 40.5 c -1e-5,7.26564 1.59374,12.65626 4.78126,16.17187 3.18747,3.46875 7.47653,5.20313 12.86718,5.20313" /><path
         inkscape:connector-curvature="0"
         id="path3016"
         style="font-size:144px;font-family:Nunito;-inkscape-font-specification:Nunito;fill:#e5e5e5;fill-opacity:1"
         d="m 154.80994,161.6479 c 1.73436,0 3.23436,-0.51562 4.5,-1.54687 1.31248,-1.03125 1.96873,-2.48437 1.96875,-4.35938 v -36.21093 c -2e-5,-5.48433 1.73435,-9.86714 5.20313,-13.14844 3.51559,-3.28119 8.43746,-4.92182 14.76562,-4.92188 1.49996,6e-5 2.6484,-0.49212 3.44532,-1.476559 0.79682,-1.031187 1.19526,-2.249936 1.19531,-3.65625 -5e-5,-1.499933 -0.44536,-2.812432 -1.33594,-3.9375 -0.84379,-1.12493 -2.01567,-1.687429 -3.51562,-1.6875 -4.96879,7.1e-5 -9.23441,1.476632 -12.79688,4.429687 -3.51565,2.906314 -5.8594,6.539122 -7.03125,10.898442 l 0.0703,-8.437504 c -2e-5,-1.781184 -0.63283,-3.163995 -1.89843,-4.148438 -1.21877,-1.03118 -2.69534,-1.546805 -4.42969,-1.546875 -1.73439,7e-5 -3.23439,0.515695 -4.5,1.546875 -1.26564,0.984443 -1.89845,2.414129 -1.89844,4.289063 v 58.007809 c -1e-5,1.87501 0.60936,3.32813 1.82813,4.35938 1.21873,1.03125 2.69529,1.54687 4.42968,1.54687" /><path
         inkscape:connector-curvature="0"
         id="path3020"
         style="font-size:144px;font-family:Nunito;-inkscape-font-specification:Nunito;fill:#e5e5e5;fill-opacity:1"
         d="m 326.8058,161.6479 c 1.73435,0 3.23435,-0.53906 4.5,-1.61718 1.2656,-1.125 1.89841,-2.67187 1.89844,-4.64063 v -54.63281 h 11.88281 c 2.99996,6e-5 4.49996,-1.359314 4.5,-4.078127 -4e-5,-1.218683 -0.37504,-2.226495 -1.125,-3.023437 -0.70317,-0.796806 -1.82817,-1.195243 -3.375,-1.195313 h -11.88281 v -5.484375 c -3e-5,-3.796796 0.14059,-6.796793 0.42187,-9 0.3281,-2.249914 0.91404,-3.960849 1.75782,-5.132812 0.89059,-1.21866 1.8984,-1.992097 3.02343,-2.320313 1.12497,-0.374908 2.69528,-0.562408 4.71094,-0.5625 h 5.97656 c 1.40621,9.2e-5 2.48433,-0.468657 3.23438,-1.40625 0.79682,-0.937406 1.19526,-2.062404 1.19531,-3.375 -5e-5,-1.312402 -0.39849,-2.437401 -1.19531,-3.375 -0.75005,-0.984274 -1.80474,-1.476461 -3.16406,-1.476562 h -8.57813 c -6.28128,1.01e-4 -11.20315,1.781349 -14.76562,5.34375 -3.56252,3.515717 -5.34377,9.468836 -5.34375,17.859375 v 8.929687 h -9.21094 c -1.54688,7e-5 -2.69532,0.398507 -3.44531,1.195313 -0.75001,0.796942 -1.12501,1.804754 -1.125,3.023437 -1e-5,1.171939 0.37499,2.156313 1.125,2.953125 0.74999,0.750062 1.89843,1.125062 3.44531,1.125002 h 9.21094 v 54.63281 c -2e-5,1.96876 0.60935,3.51563 1.82812,4.64063 1.26561,1.07812 2.76561,1.61718 4.5,1.61718" /><path
         inkscape:connector-curvature="0"
         id="path3022"
         style="font-size:144px;font-family:Nunito;-inkscape-font-specification:Nunito;fill:#e5e5e5;fill-opacity:1"
         d="m 371.17299,75.515091 c 2.48435,8.6e-5 4.47654,-0.703038 5.97656,-2.109375 1.49998,-1.453035 2.24998,-3.328033 2.25,-5.625 -2e-5,-2.343654 -0.75002,-4.218652 -2.25,-5.625 -1.50002,-1.453024 -3.46877,-2.179586 -5.90625,-2.179688 -2.48439,1.02e-4 -4.50001,0.726664 -6.04687,2.179688 -1.50001,1.453223 -2.25001,3.328221 -2.25,5.625 -1e-5,2.296967 0.74999,4.171965 2.25,5.625 1.49998,1.406337 3.49217,2.109461 5.97656,2.109375 m -0.0703,86.132809 c 1.73435,0 3.23435,-0.5625 4.5,-1.6875 1.31247,-1.17187 1.96872,-2.74218 1.96875,-4.71093 V 98.085403 c -3e-5,-1.968684 -0.63284,-3.515557 -1.89844,-4.640625 -1.21877,-1.12493 -2.6719,-1.68743 -4.35938,-1.6875 -1.73439,7e-5 -3.25782,0.56257 -4.57031,1.6875 -1.26564,1.125068 -1.89845,2.671941 -1.89844,4.640625 v 57.164067 c -1e-5,2.0625 0.60937,3.65625 1.82813,4.78125 1.21873,1.07812 2.6953,1.61718 4.42969,1.61718" /><path
         inkscape:connector-curvature="0"
         id="path3024"
         style="font-size:144px;font-family:Nunito;-inkscape-font-specification:Nunito;fill:#e5e5e5;fill-opacity:1"
         d="m 404.92299,161.6479 c 1.73436,0 3.23435,-0.5625 4.5,-1.6875 1.31248,-1.12499 1.96873,-2.6953 1.96875,-4.71093 v -30.65625 l 33.04687,35.15625 c 1.17182,1.3125 2.57807,1.96875 4.21875,1.96875 1.54682,0 2.90619,-0.58594 4.07813,-1.75782 1.21868,-1.17187 1.82806,-2.5078 1.82812,-4.00781 -6e-5,-1.35937 -0.51569,-2.57812 -1.54687,-3.65625 l -27.91406,-29.39062 25.52343,-22.85157 c 1.12494,-1.078059 1.68744,-2.27337 1.6875,-3.585934 -6e-5,-1.453058 -0.586,-2.765557 -1.75781,-3.9375 -1.12506,-1.171805 -2.43756,-1.757742 -3.9375,-1.757813 -1.17193,7.1e-5 -2.27349,0.445383 -3.30469,1.335938 L 411.39174,121.35884 V 67.569778 c -2e-5,-1.968654 -0.63284,-3.515527 -1.89844,-4.640625 -1.21877,-1.1249 -2.67189,-1.687399 -4.35937,-1.6875 -1.73439,1.01e-4 -3.25783,0.5626 -4.57032,1.6875 -1.26563,1.125098 -1.89844,2.671971 -1.89843,4.640625 v 87.679692 c -1e-5,2.0625 0.60936,3.65625 1.82812,4.78125 1.21874,1.07812 2.6953,1.61718 4.42969,1.61718" /></g><path
       inkscape:connector-curvature="0"
       id="path4507"
       d="m 600.12752,292.58882 c -16.91838,-1.45856 -29.84632,-6.56183 -39.24931,-15.49371 -9.56676,-9.08774 -13.67173,-20.93569 -12.0517,-34.7848 1.86424,-15.93713 9.43767,-27.19159 22.71588,-33.75732 10.2338,-5.06041 20.44309,-6.98533 37.06931,-6.98927 11.81283,-0.005 21.71128,0.96233 36.80826,3.5889 3.73303,0.6495 6.965,1.1812 7.18215,1.18165 0.31579,0 0.56623,-1.18809 1.25119,-5.93821 1.23931,-8.59442 1.46143,-11.56 1.12379,-15.00273 -0.39299,-4.00745 -0.90589,-5.91623 -2.4241,-9.02195 -3.91713,-8.0128 -13.21574,-12.91535 -28.14768,-14.84026 -4.2704,-0.55049 -14.12623,-0.62752 -18.40413,-0.14408 -7.16717,0.81031 -11.16671,1.84279 -20.08644,5.1849 -5.21851,1.95539 -5.24236,1.96144 -7.32396,1.83924 -3.5785,-0.20967 -6.02141,-1.82985 -7.58829,-5.03243 -0.64529,-1.31883 -0.75876,-1.86327 -0.75878,-3.64031 0,-2.66769 0.69475,-4.08389 3.11393,-6.34687 5.42494,-5.07485 14.55393,-9.39658 23.76779,-11.25216 5.89973,-1.18809 8.80389,-1.43788 16.57677,-1.42594 8.04294,0.021 13.1858,0.4665 20.33331,1.79558 11.88844,2.21037 20.9155,6.10652 27.72243,11.9649 2.01973,1.73823 5.06528,5.15943 6.37028,7.15578 0.39887,0.61023 0.80976,1.10956 0.91308,1.10956 0.10337,0 0.76318,-0.73323 1.46635,-1.62917 10.30717,-13.13401 27.66685,-20.56815 48.00509,-20.55771 14.3852,0 27.75636,3.6466 37.72355,10.26769 7.90565,5.2517 14.328,13.34183 16.92245,21.31702 1.48969,4.57907 1.71615,6.27113 1.72989,12.92209 0.008,4.13839 -0.10571,6.92978 -0.33652,8.22313 -2.33262,13.07196 -7.88876,22.12793 -17.53268,28.57636 -7.75842,5.18761 -17.50231,8.22308 -30.2461,9.42206 -6.41511,0.60354 -18.14838,0.54654 -25.74941,-0.12534 -6.45093,-0.57007 -14.37226,-1.57317 -17.75149,-2.24769 -2.82855,-0.56472 -12.51469,-2.182 -12.59444,-2.10282 -0.0351,0.0355 -0.49601,2.93211 -1.02406,6.43854 -0.84311,5.5986 -0.96255,6.99557 -0.98024,11.46583 -0.0188,4.54499 0.0457,5.34237 0.59407,7.43994 1.76335,6.74493 5.6493,11.25675 12.6994,14.74479 6.93539,3.43129 14.20589,4.91613 25.19148,5.14504 4.8636,0.10231 7.35434,0.031 10.39711,-0.2911 7.37629,-0.78214 10.73754,-1.64026 20.53748,-5.24296 2.44083,-0.89744 4.93182,-1.71399 5.53556,-1.81466 1.2938,-0.21572 3.70675,0.22976 5.11306,0.9442 2.53835,1.28916 4.67099,4.72734 4.6577,7.50868 -0.0145,3.24935 -1.11066,5.21748 -4.32763,7.77701 -7.69188,6.11991 -17.51295,9.87297 -29.2366,11.17282 -4.18051,0.46361 -13.72526,0.5319 -18.33561,0.13154 -12.98352,-1.12769 -21.99771,-3.34836 -30.23565,-7.44813 -6.42786,-3.19899 -11.33212,-7.16762 -14.99501,-12.13446 -0.90002,-1.22047 -1.66452,-2.24944 -1.69891,-2.28706 -0.0345,-0.0375 -0.63263,0.66748 -1.3295,1.56632 -3.0803,3.97343 -7.79073,8.24426 -12.39397,11.23732 -6.64547,4.32093 -16.18573,7.61729 -25.83921,8.92818 -2.87889,0.39077 -12.43062,0.71319 -14.87994,0.50207 z m 16.57677,-18.60027 c 7.88149,-1.74672 14.90504,-5.68378 20.00382,-11.21285 4.65099,-5.04332 8.46577,-12.59876 10.56523,-20.92485 1.18344,-4.69352 3.1506,-17.75634 2.71454,-18.02571 -0.17209,-0.10651 -1.2117,-0.27462 -2.30997,-0.37404 -1.0983,-0.10026 -4.22889,-0.46905 -6.95687,-0.8218 -16.20389,-2.09572 -26.14478,-2.90998 -31.71776,-2.59755 -10.59514,0.5935 -14.91441,1.51847 -21.27569,4.55649 -3.25889,1.55628 -5.50817,3.2452 -7.28787,5.47186 -2.5533,3.19484 -4.09444,6.36965 -5.16868,10.64757 -0.78174,3.11296 -0.86151,11.264 -0.13595,13.89022 1.22222,4.42385 2.67312,6.92767 5.93568,10.24301 4.46747,4.5396 10.35673,7.56799 17.66178,9.0823 3.73536,0.77439 3.62481,0.76685 9.87915,0.67268 4.53816,-0.0689 6.23608,-0.19633 8.09259,-0.60733 z m 103.24583,-61.24891 c 6.59156,-0.58161 10.64457,-1.60494 15.62435,-3.94441 4.14164,-1.94595 6.54884,-3.93476 8.82681,-7.29271 3.35371,-4.94391 4.65965,-9.62254 4.62613,-16.57385 -0.024,-4.95454 -0.44387,-7.0156 -2.15427,-10.57258 -3.82161,-7.94726 -12.7991,-13.63983 -24.57351,-15.58189 -2.93811,-0.48449 -10.82411,-0.39846 -13.83573,0.15043 -5.79374,1.0571 -10.69115,2.98392 -15.01047,5.90534 -7.98005,5.39752 -13.48738,13.53377 -16.55417,24.45616 -1.20462,4.29021 -1.52573,5.93696 -2.59974,13.33219 l -0.9907,6.82182 1.32708,0.14617 c 4.00814,0.44443 13.04639,1.5388 18.29543,2.21542 3.3023,0.42564 7.35514,0.87986 9.00629,1.00955 4.77333,0.37468 13.33142,0.33981 18.0125,-0.0731 v 0 z"
       style="display:inline;fill:#37abc8;fill-opacity:1;stroke:none;stroke-width:0.4995763" /></g></svg>
