<svg id="logo" xmlns:rdf="http://www.w3.org/1999/02/22-rdf-syntax-ns#" xmlns="http://www.w3.org/2000/svg" enable-background="new 0 0 364 364" xml:space="preserve" viewBox="0 0 364 364" version="1.1" y="0px" x="0px" xmlns:cc="http://creativecommons.org/ns#" xmlns:dc="http://purl.org/dc/elements/1.1/">
      <g stroke="#000" stroke-miterlimit="10" fill="#fff">
        <path stroke-linejoin="round" d="m125.29 212.04-75.584 7.664 66.914-37.523c-0.599-7.652-0.062-15.523 1.758-23.398 3.68-15.921 12.059-29.525 23.316-39.723l-17.053-56.102 44.406 40.066-0.018 0.012c8.447-2.836 17.454-4.229 26.662-3.955l32.709-58.913-2.154 66.195c14.354 6.723 25.964 17.595 33.701 30.774l-0.046-0.116 54.511-5.706-45.61 28.354-0.012-0.028c2.381 10.829 2.462 22.341-0.202 33.862-3.092 13.379-9.508 25.117-18.154 34.58 0.02 0.03 0.031 0.051 0.031 0.051l22.76 72.487-51.25-51.361s-0.339-0.435-0.699-1.213c-9.997 3.875-20.879 5.68-32.012 5.056l-26.145 54.399 0.379-60.355c-16.772-7.06-30.074-19.671-38.208-35.107z" stroke-width="40"/>
        <g stroke-dasharray="4">
          <polygon transform="matrix(-1 0 0 1 364.13 0)" points="201 307.5 200.57 238.61 171.16 245.41"/>
          <polygon transform="matrix(-1 0 0 1 364.13 0)" points="195.07 103.03 222.24 119.66 239.48 62.961"/>
          <polygon transform="matrix(-1 0 0 1 364.13 0)" points="49.709 131.32 104.22 137.02 95.319 159.67"/>
          <circle cx="-193.49" transform="scale(-1,1)" cy="176.15" r="77.086"/>
          <path d="m250.47 228.14 22.76 72.487-51.25-51.361s-6.998-8.949 8.889-18.473c15.885-9.523 19.601-2.653 19.601-2.653z"/>
          <path d="m135.87 210.97-86.162 8.737 75.297-42.225s12.918-4.169 18.271 10.411c5.354 14.582-7.406 23.077-7.406 23.077z"/>
          <path d="m225.53 128.45 2.873-88.275-43.08 77.595s-6.673 14.228 17.098 19.722c23.771 5.493 23.109-9.042 23.109-9.042z"/>
        </g>
        <g stroke-linejoin="round" stroke-linecap="round" stroke-width="23">
          <line y2="275" x2="49.709" y1="230.33" x1="49.709"/>
          <line y2="306.33" x2="74.625" y1="230.33" x1="74.625"/>
          <line y2="253.25" x2="99.291" y1="230.33" x1="99.291"/>
        </g>
      </g>
    </svg>
